# xmcd CD database file
#
# Track frame offsets:
#	151
#	15522
#	26861
#	44421
#	62790
#	79001
#
# Disc length: 1282 seconds
#
# Revision: 0
# Processed by: cddbd v1.5.1PL0 Copyright (c) Steve Scherf et al.
# Submitted via: CDex 1.50beta10
#
DISCID=45050006
DTITLE=YOSHITADA SATO - DEMO 6
DYEAR=2004
DGENRE=Rock
TTITLE0=RUNAWAY
TTITLE1=BYE BYE FREE BIRD
TTITLE2=陽だまり
TTITLE3=翼
TTITLE4=渚
TTITLE5=THE OLD RIVER
EXTD=YEAR: 2004
EXTT0=
EXTT1=
EXTT2=
EXTT3=
EXTT4=
EXTT5=
PLAYORDER=
